solid Created by Gmsh
facet normal -1 -1.8673e-016 2.5e-021
  outer loop
    vertex -3.73459e-016 2 0.4
    vertex -4.66824e-016 2.5 0.4
    vertex -4.20142e-016 2.25 0.2
  endloop
endfacet
facet normal -1 -1.8673e-016 -2.5e-021
  outer loop
    vertex -4.66824e-016 2.5 0
    vertex -3.73459e-016 2 0
    vertex -4.20142e-016 2.25 0.2
  endloop
endfacet
facet normal -1 -1.8673e-016 2.5e-022
  outer loop
    vertex -9.33649e-017 0.5 0
    vertex 0 0 0
    vertex -4.66824e-017 0.25 0.2
  endloop
endfacet
facet normal -1 -1.8673e-016 -2.5e-022
  outer loop
    vertex 0 0 0.4
    vertex -9.33649e-017 0.5 0.4
    vertex -4.66824e-017 0.25 0.2
  endloop
endfacet
facet normal -1 -1.8673e-016 2.5e-021
  outer loop
    vertex -2.80095e-016 1.5 0
    vertex -1.8673e-016 1 0
    vertex -2.33412e-016 1.25 0.2
  endloop
endfacet
facet normal -1 -1.8673e-016 -2.5e-021
  outer loop
    vertex -1.8673e-016 1 0.4
    vertex -2.80095e-016 1.5 0.4
    vertex -2.33412e-016 1.25 0.2
  endloop
endfacet
facet normal -1 -1.86728e-016 0
  outer loop
    vertex -3.73459e-016 2 0
    vertex -2.80095e-016 1.5 0
    vertex -3.26777e-016 1.75 0.2
  endloop
endfacet
facet normal -1 -1.8673e-016 2.25e-021
  outer loop
    vertex -1.8673e-016 1 0
    vertex -9.33649e-017 0.5 0
    vertex -1.40047e-016 0.75 0.2
  endloop
endfacet
facet normal -1 -1.86728e-016 0
  outer loop
    vertex -2.80095e-016 1.5 0.4
    vertex -3.73459e-016 2 0.4
    vertex -3.26777e-016 1.75 0.2
  endloop
endfacet
facet normal -1 -1.8673e-016 -2.25e-021
  outer loop
    vertex -9.33649e-017 0.5 0.4
    vertex -1.8673e-016 1 0.4
    vertex -1.40047e-016 0.75 0.2
  endloop
endfacet
facet normal -1 -1.86728e-016 -0
  outer loop
    vertex -4.66824e-016 2.5 0.4
    vertex -4.66824e-016 2.5 0
    vertex -4.20142e-016 2.25 0.2
  endloop
endfacet
facet normal -1 -1.86732e-016 0
  outer loop
    vertex -3.73459e-016 2 0
    vertex -3.73459e-016 2 0.4
    vertex -4.20142e-016 2.25 0.2
  endloop
endfacet
facet normal -1 -1.86728e-016 -0
  outer loop
    vertex -3.73459e-016 2 0.4
    vertex -3.73459e-016 2 0
    vertex -3.26777e-016 1.75 0.2
  endloop
endfacet
facet normal -1 -1.86728e-016 0
  outer loop
    vertex -1.8673e-016 1 0
    vertex -1.8673e-016 1 0.4
    vertex -2.33412e-016 1.25 0.2
  endloop
endfacet
facet normal -1 -1.8673e-016 0
  outer loop
    vertex 0 0 0
    vertex 0 0 0.4
    vertex -4.66824e-017 0.25 0.2
  endloop
endfacet
facet normal -1 -1.86732e-016 -0
  outer loop
    vertex -1.8673e-016 1 0.4
    vertex -1.8673e-016 1 0
    vertex -1.40047e-016 0.75 0.2
  endloop
endfacet
facet normal -1 -1.8673e-016 -0
  outer loop
    vertex -9.33649e-017 0.5 0.4
    vertex -9.33649e-017 0.5 0
    vertex -4.66824e-017 0.25 0.2
  endloop
endfacet
facet normal -1 -1.86728e-016 0
  outer loop
    vertex -9.33649e-017 0.5 0
    vertex -9.33649e-017 0.5 0.4
    vertex -1.40047e-016 0.75 0.2
  endloop
endfacet
facet normal -1 -1.86732e-016 -0
  outer loop
    vertex -2.80095e-016 1.5 0.4
    vertex -2.80095e-016 1.5 0
    vertex -2.33412e-016 1.25 0.2
  endloop
endfacet
facet normal -1 -1.86728e-016 0
  outer loop
    vertex -2.80095e-016 1.5 0
    vertex -2.80095e-016 1.5 0.4
    vertex -3.26777e-016 1.75 0.2
  endloop
endfacet
facet normal -0 -1 0
  outer loop
    vertex 4 0 0.4
    vertex 3.5 0 0.4
    vertex 3.75 0 0.2
  endloop
endfacet
facet normal 0 -1 0
  outer loop
    vertex 3.5 0 0
    vertex 4 0 0
    vertex 3.75 0 0.2
  endloop
endfacet
facet normal 0 -1 0
  outer loop
    vertex 1.5 0 0
    vertex 2 0 0
    vertex 1.75 0 0.2
  endloop
endfacet
facet normal 0 -1 0
  outer loop
    vertex 2 0 0
    vertex 2.5 0 0
    vertex 2.25 0 0.2
  endloop
endfacet
facet normal 0 -1 0
  outer loop
    vertex 2.5 0 0
    vertex 3 0 0
    vertex 2.75 0 0.2
  endloop
endfacet
facet normal -0 -1 0
  outer loop
    vertex 2 0 0.4
    vertex 1.5 0 0.4
    vertex 1.75 0 0.2
  endloop
endfacet
facet normal -0 -1 0
  outer loop
    vertex 2.5 0 0.4
    vertex 2 0 0.4
    vertex 2.25 0 0.2
  endloop
endfacet
facet normal -0 -1 0
  outer loop
    vertex 3 0 0.4
    vertex 2.5 0 0.4
    vertex 2.75 0 0.2
  endloop
endfacet
facet normal 0 -1 0
  outer loop
    vertex 1 0 0
    vertex 1.5 0 0
    vertex 1.25 0 0.2
  endloop
endfacet
facet normal -0 -1 0
  outer loop
    vertex 3.5 0 0.4
    vertex 3 0 0.4
    vertex 3.25 0 0.2
  endloop
endfacet
facet normal -0 -1 0
  outer loop
    vertex 1.5 0 0.4
    vertex 1 0 0.4
    vertex 1.25 0 0.2
  endloop
endfacet
facet normal 0 -1 0
  outer loop
    vertex 3 0 0
    vertex 3.5 0 0
    vertex 3.25 0 0.2
  endloop
endfacet
facet normal 0 -1 0
  outer loop
    vertex 0 0 0
    vertex 0.5 0 0
    vertex 0.25 0 0.2
  endloop
endfacet
facet normal -0 -1 0
  outer loop
    vertex 0.5 0 0.4
    vertex 0 0 0.4
    vertex 0.25 0 0.2
  endloop
endfacet
facet normal 0 -1 0
  outer loop
    vertex 0.5 0 0
    vertex 1 0 0
    vertex 0.75 0 0.2
  endloop
endfacet
facet normal -0 -1 0
  outer loop
    vertex 1 0 0.4
    vertex 0.5 0 0.4
    vertex 0.75 0 0.2
  endloop
endfacet
facet normal 0 -1 0
  outer loop
    vertex 4 0 0
    vertex 4.5 0 0
    vertex 4.25 0 0.2
  endloop
endfacet
facet normal -0 -1 0
  outer loop
    vertex 4.5 0 0.4
    vertex 4 0 0.4
    vertex 4.25 0 0.2
  endloop
endfacet
facet normal 0 -1 0
  outer loop
    vertex 3 0 0.4
    vertex 3 0 0
    vertex 3.25 0 0.2
  endloop
endfacet
facet normal 0 -1 0
  outer loop
    vertex 4 0 0
    vertex 4 0 0.4
    vertex 3.75 0 0.2
  endloop
endfacet
facet normal 0 -1 0
  outer loop
    vertex 1.5 0 0
    vertex 1.5 0 0.4
    vertex 1.25 0 0.2
  endloop
endfacet
facet normal 0 -1 0
  outer loop
    vertex 1.5 0 0.4
    vertex 1.5 0 0
    vertex 1.75 0 0.2
  endloop
endfacet
facet normal 0 -1 0
  outer loop
    vertex 2 0 0
    vertex 2 0 0.4
    vertex 1.75 0 0.2
  endloop
endfacet
facet normal 0 -1 0
  outer loop
    vertex 2 0 0.4
    vertex 2 0 0
    vertex 2.25 0 0.2
  endloop
endfacet
facet normal 0 -1 0
  outer loop
    vertex 2.5 0 0
    vertex 2.5 0 0.4
    vertex 2.25 0 0.2
  endloop
endfacet
facet normal 0 -1 0
  outer loop
    vertex 2.5 0 0.4
    vertex 2.5 0 0
    vertex 2.75 0 0.2
  endloop
endfacet
facet normal 0 -1 0
  outer loop
    vertex 3 0 0
    vertex 3 0 0.4
    vertex 2.75 0 0.2
  endloop
endfacet
facet normal 0 -1 0
  outer loop
    vertex 3.5 0 0.4
    vertex 3.5 0 0
    vertex 3.75 0 0.2
  endloop
endfacet
facet normal 0 -1 0
  outer loop
    vertex 1 0 0.4
    vertex 1 0 0
    vertex 1.25 0 0.2
  endloop
endfacet
facet normal 0 -1 0
  outer loop
    vertex 0 0 0.4
    vertex 0 0 0
    vertex 0.25 0 0.2
  endloop
endfacet
facet normal 0 -1 0
  outer loop
    vertex 0.5 0 0
    vertex 0.5 0 0.4
    vertex 0.25 0 0.2
  endloop
endfacet
facet normal 0 -1 0
  outer loop
    vertex 0.5 0 0.4
    vertex 0.5 0 0
    vertex 0.75 0 0.2
  endloop
endfacet
facet normal 0 -1 0
  outer loop
    vertex 1 0 0
    vertex 1 0 0.4
    vertex 0.75 0 0.2
  endloop
endfacet
facet normal 0 -1 0
  outer loop
    vertex 3.5 0 0
    vertex 3.5 0 0.4
    vertex 3.25 0 0.2
  endloop
endfacet
facet normal 0 -1 0
  outer loop
    vertex 4 0 0.4
    vertex 4 0 0
    vertex 4.25 0 0.2
  endloop
endfacet
facet normal 0 -1 0
  outer loop
    vertex 4.5 0 0
    vertex 4.5 0 0.4
    vertex 4.25 0 0.2
  endloop
endfacet
facet normal 1 0 0
  outer loop
    vertex 4.5 0 0
    vertex 4.5 0.5 0
    vertex 4.5 0.25 0.2
  endloop
endfacet
facet normal 1 0 0
  outer loop
    vertex 4.5 0.5 0.4
    vertex 4.5 0 0.4
    vertex 4.5 0.25 0.2
  endloop
endfacet
facet normal 1 0 0
  outer loop
    vertex 4.5 1.5 0
    vertex 4.5 2 0
    vertex 4.5 1.75 0.2
  endloop
endfacet
facet normal 1 0 0
  outer loop
    vertex 4.5 2.5 0.4
    vertex 4.5 2 0.4
    vertex 4.5 2.25 0.2
  endloop
endfacet
facet normal 1 0 0
  outer loop
    vertex 4.5 2 0
    vertex 4.5 2.5 0
    vertex 4.5 2.25 0.2
  endloop
endfacet
facet normal 1 0 0
  outer loop
    vertex 4.5 0.5 0
    vertex 4.5 1 0
    vertex 4.5 0.75 0.2
  endloop
endfacet
facet normal 1 0 0
  outer loop
    vertex 4.5 1 0
    vertex 4.5 1.5 0
    vertex 4.5 1.25 0.2
  endloop
endfacet
facet normal 1 0 0
  outer loop
    vertex 4.5 1 0.4
    vertex 4.5 0.5 0.4
    vertex 4.5 0.75 0.2
  endloop
endfacet
facet normal 1 0 0
  outer loop
    vertex 4.5 1.5 0.4
    vertex 4.5 1 0.4
    vertex 4.5 1.25 0.2
  endloop
endfacet
facet normal 1 0 0
  outer loop
    vertex 4.5 2 0.4
    vertex 4.5 1.5 0.4
    vertex 4.5 1.75 0.2
  endloop
endfacet
facet normal 1 0 0
  outer loop
    vertex 4.5 0 0.4
    vertex 4.5 0 0
    vertex 4.5 0.25 0.2
  endloop
endfacet
facet normal 1 0 -0
  outer loop
    vertex 4.5 0.5 0
    vertex 4.5 0.5 0.4
    vertex 4.5 0.25 0.2
  endloop
endfacet
facet normal 1 0 0
  outer loop
    vertex 4.5 2 0.4
    vertex 4.5 2 0
    vertex 4.5 2.25 0.2
  endloop
endfacet
facet normal 1 0 0
  outer loop
    vertex 4.5 0.5 0.4
    vertex 4.5 0.5 0
    vertex 4.5 0.75 0.2
  endloop
endfacet
facet normal 1 0 -0
  outer loop
    vertex 4.5 1 0
    vertex 4.5 1 0.4
    vertex 4.5 0.75 0.2
  endloop
endfacet
facet normal 1 0 0
  outer loop
    vertex 4.5 1.5 0.4
    vertex 4.5 1.5 0
    vertex 4.5 1.75 0.2
  endloop
endfacet
facet normal 1 0 -0
  outer loop
    vertex 4.5 1.5 0
    vertex 4.5 1.5 0.4
    vertex 4.5 1.25 0.2
  endloop
endfacet
facet normal 1 0 0
  outer loop
    vertex 4.5 1 0.4
    vertex 4.5 1 0
    vertex 4.5 1.25 0.2
  endloop
endfacet
facet normal 1 0 -0
  outer loop
    vertex 4.5 2 0
    vertex 4.5 2 0.4
    vertex 4.5 1.75 0.2
  endloop
endfacet
facet normal 1 0 -0
  outer loop
    vertex 4.5 2.5 0
    vertex 4.5 2.5 0.4
    vertex 4.5 2.25 0.2
  endloop
endfacet
facet normal -0 1 0
  outer loop
    vertex 2 2.5 0.4
    vertex 2.5 2.5 0.4
    vertex 2.25 2.5 0.2
  endloop
endfacet
facet normal 0 1 0
  outer loop
    vertex 1 2.5 0
    vertex 0.5 2.5 0
    vertex 0.75 2.5 0.2
  endloop
endfacet
facet normal -0 1 0
  outer loop
    vertex 0.5 2.5 0.4
    vertex 1 2.5 0.4
    vertex 0.75 2.5 0.2
  endloop
endfacet
facet normal 0 1 0
  outer loop
    vertex 2.5 2.5 0
    vertex 2 2.5 0
    vertex 2.25 2.5 0.2
  endloop
endfacet
facet normal 0 1 0
  outer loop
    vertex 2 2.5 0
    vertex 1.5 2.5 0
    vertex 1.75 2.5 0.2
  endloop
endfacet
facet normal 0 1 0
  outer loop
    vertex 3.5 2.5 0
    vertex 3 2.5 0
    vertex 3.25 2.5 0.2
  endloop
endfacet
facet normal 0 1 0
  outer loop
    vertex 3 2.5 0
    vertex 2.5 2.5 0
    vertex 2.75 2.5 0.2
  endloop
endfacet
facet normal -0 1 0
  outer loop
    vertex 3 2.5 0.4
    vertex 3.5 2.5 0.4
    vertex 3.25 2.5 0.2
  endloop
endfacet
facet normal -0 1 0
  outer loop
    vertex 2.5 2.5 0.4
    vertex 3 2.5 0.4
    vertex 2.75 2.5 0.2
  endloop
endfacet
facet normal -0 1 0
  outer loop
    vertex 1.5 2.5 0.4
    vertex 2 2.5 0.4
    vertex 1.75 2.5 0.2
  endloop
endfacet
facet normal 0 1 0
  outer loop
    vertex 1.5 2.5 0
    vertex 1 2.5 0
    vertex 1.25 2.5 0.2
  endloop
endfacet
facet normal -0 1 0
  outer loop
    vertex 1 2.5 0.4
    vertex 1.5 2.5 0.4
    vertex 1.25 2.5 0.2
  endloop
endfacet
facet normal 0 1 0
  outer loop
    vertex 4.5 2.5 0
    vertex 4 2.5 0
    vertex 4.25 2.5 0.2
  endloop
endfacet
facet normal -0 1 0
  outer loop
    vertex 4 2.5 0.4
    vertex 4.5 2.5 0.4
    vertex 4.25 2.5 0.2
  endloop
endfacet
facet normal 0 1 0
  outer loop
    vertex 4 2.5 0
    vertex 3.5 2.5 0
    vertex 3.75 2.5 0.2
  endloop
endfacet
facet normal -0 1 0
  outer loop
    vertex 3.5 2.5 0.4
    vertex 4 2.5 0.4
    vertex 3.75 2.5 0.2
  endloop
endfacet
facet normal 0 1 0
  outer loop
    vertex 0.5 2.5 0
    vertex -4.66824e-016 2.5 0
    vertex 0.25 2.5 0.2
  endloop
endfacet
facet normal -0 1 0
  outer loop
    vertex -4.66824e-016 2.5 0.4
    vertex 0.5 2.5 0.4
    vertex 0.25 2.5 0.2
  endloop
endfacet
facet normal 0 1 0
  outer loop
    vertex 1 2.5 0.4
    vertex 1 2.5 0
    vertex 0.75 2.5 0.2
  endloop
endfacet
facet normal 0 1 0
  outer loop
    vertex 2.5 2.5 0.4
    vertex 2.5 2.5 0
    vertex 2.25 2.5 0.2
  endloop
endfacet
facet normal 0 1 0
  outer loop
    vertex 2 2.5 0.4
    vertex 2 2.5 0
    vertex 1.75 2.5 0.2
  endloop
endfacet
facet normal 0 1 0
  outer loop
    vertex 3.5 2.5 0.4
    vertex 3.5 2.5 0
    vertex 3.25 2.5 0.2
  endloop
endfacet
facet normal 0 1 0
  outer loop
    vertex 3 2.5 0.4
    vertex 3 2.5 0
    vertex 2.75 2.5 0.2
  endloop
endfacet
facet normal 0 1 0
  outer loop
    vertex 3 2.5 0
    vertex 3 2.5 0.4
    vertex 3.25 2.5 0.2
  endloop
endfacet
facet normal 0 1 0
  outer loop
    vertex 2.5 2.5 0
    vertex 2.5 2.5 0.4
    vertex 2.75 2.5 0.2
  endloop
endfacet
facet normal 0 1 0
  outer loop
    vertex 2 2.5 0
    vertex 2 2.5 0.4
    vertex 2.25 2.5 0.2
  endloop
endfacet
facet normal 0 1 0
  outer loop
    vertex 1 2.5 0
    vertex 1 2.5 0.4
    vertex 1.25 2.5 0.2
  endloop
endfacet
facet normal 0 1 0
  outer loop
    vertex 4.5 2.5 0.4
    vertex 4.5 2.5 0
    vertex 4.25 2.5 0.2
  endloop
endfacet
facet normal 0 1 0
  outer loop
    vertex 1.5 2.5 0
    vertex 1.5 2.5 0.4
    vertex 1.75 2.5 0.2
  endloop
endfacet
facet normal 0 1 0
  outer loop
    vertex 1.5 2.5 0.4
    vertex 1.5 2.5 0
    vertex 1.25 2.5 0.2
  endloop
endfacet
facet normal 0 1 0
  outer loop
    vertex 0.5 2.5 0
    vertex 0.5 2.5 0.4
    vertex 0.75 2.5 0.2
  endloop
endfacet
facet normal 0 1 0
  outer loop
    vertex 4 2.5 0
    vertex 4 2.5 0.4
    vertex 4.25 2.5 0.2
  endloop
endfacet
facet normal 0 1 0
  outer loop
    vertex 4 2.5 0.4
    vertex 4 2.5 0
    vertex 3.75 2.5 0.2
  endloop
endfacet
facet normal 0 1 0
  outer loop
    vertex 3.5 2.5 0
    vertex 3.5 2.5 0.4
    vertex 3.75 2.5 0.2
  endloop
endfacet
facet normal 0 1 0
  outer loop
    vertex 0.5 2.5 0.4
    vertex 0.5 2.5 0
    vertex 0.25 2.5 0.2
  endloop
endfacet
facet normal 0 1 0
  outer loop
    vertex -4.66824e-016 2.5 0
    vertex -4.66824e-016 2.5 0.4
    vertex 0.25 2.5 0.2
  endloop
endfacet
facet normal 0 -0 1
  outer loop
    vertex 1.55781 0.762433 0.4
    vertex 1.78832 1.22266 0.4
    vertex 1.36984 1.15726 0.4
  endloop
endfacet
facet normal 0 0 1
  outer loop
    vertex 3.12028 1.1463 0.4
    vertex 2.65699 1.20387 0.4
    vertex 2.94163 0.758639 0.4
  endloop
endfacet
facet normal -0 0 1
  outer loop
    vertex 3.00172 1.52894 0.4
    vertex 3.42213 1.42234 0.4
    vertex 3.18239 1.91428 0.4
  endloop
endfacet
facet normal 0 0 1
  outer loop
    vertex 2.94163 0.758639 0.4
    vertex 3.45771 0.942614 0.4
    vertex 3.12028 1.1463 0.4
  endloop
endfacet
facet normal 0 0 1
  outer loop
    vertex 1.36984 1.15726 0.4
    vertex 1.04054 0.945163 0.4
    vertex 1.55781 0.762433 0.4
  endloop
endfacet
facet normal 0 0 1
  outer loop
    vertex 3.98945 1.22063 0.4
    vertex 3.42213 1.42234 0.4
    vertex 3.45771 0.942614 0.4
  endloop
endfacet
facet normal 0 0 1
  outer loop
    vertex 1.04054 0.945163 0.4
    vertex 1.00919 1.42832 0.4
    vertex 0.510549 1.22063 0.4
  endloop
endfacet
facet normal 0 0 1
  outer loop
    vertex 3.98945 1.22063 0.4
    vertex 3.45771 0.942614 0.4
    vertex 3.77897 0.693716 0.4
  endloop
endfacet
facet normal 0 -0 1
  outer loop
    vertex 0.721025 0.693716 0.4
    vertex 1.04054 0.945163 0.4
    vertex 0.510549 1.22063 0.4
  endloop
endfacet
facet normal 0 -0 1
  outer loop
    vertex 3.12028 1.1463 0.4
    vertex 3.42213 1.42234 0.4
    vertex 3.00172 1.52894 0.4
  endloop
endfacet
facet normal 0 0 1
  outer loop
    vertex 1.27636 1.95875 0.4
    vertex 1.00919 1.42832 0.4
    vertex 1.4465 1.54514 0.4
  endloop
endfacet
facet normal 0 -0 1
  outer loop
    vertex 3.18239 1.91428 0.4
    vertex 3.53795 2.10045 0.4
    vertex 3 2.5 0.4
  endloop
endfacet
facet normal 0 0 1
  outer loop
    vertex 3.18239 1.91428 0.4
    vertex 3.42213 1.42234 0.4
    vertex 3.78125 1.78125 0.4
  endloop
endfacet
facet normal -0 0 1
  outer loop
    vertex 0.71875 1.78125 0.4
    vertex 1.00919 1.42832 0.4
    vertex 1.27636 1.95875 0.4
  endloop
endfacet
facet normal -0 0 1
  outer loop
    vertex 3 2.5 0.4
    vertex 3.53795 2.10045 0.4
    vertex 3.5 2.5 0.4
  endloop
endfacet
facet normal -0 0 1
  outer loop
    vertex 1 2.5 0.4
    vertex 1.27636 1.95875 0.4
    vertex 1.5 2.5 0.4
  endloop
endfacet
facet normal 0 -0 1
  outer loop
    vertex -1.8673e-016 1 0.4
    vertex 0.510549 1.22063 0.4
    vertex -2.80095e-016 1.5 0.4
  endloop
endfacet
facet normal 0 0 1
  outer loop
    vertex 4.5 1.5 0.4
    vertex 3.98945 1.22063 0.4
    vertex 4.5 1 0.4
  endloop
endfacet
facet normal 0 0 1
  outer loop
    vertex 1 2.5 0.4
    vertex 0.782564 2.16446 0.4
    vertex 1.27636 1.95875 0.4
  endloop
endfacet
facet normal 0 -0 1
  outer loop
    vertex 1.5 0 0.4
    vertex 1.75163 0.377803 0.4
    vertex 1.20287 0.424574 0.4
  endloop
endfacet
facet normal 0 0 1
  outer loop
    vertex 3.29705 0.424032 0.4
    vertex 2.74826 0.37708 0.4
    vertex 3 0 0.4
  endloop
endfacet
facet normal 0 0 1
  outer loop
    vertex 4 2.5 0.4
    vertex 3.53795 2.10045 0.4
    vertex 4.08229 2.08229 0.4
  endloop
endfacet
facet normal 0 0 1
  outer loop
    vertex 3.78125 1.78125 0.4
    vertex 3.53795 2.10045 0.4
    vertex 3.18239 1.91428 0.4
  endloop
endfacet
facet normal 0 0 1
  outer loop
    vertex 3.18239 1.91428 0.4
    vertex 2.75 2.13197 0.4
    vertex 2.60326 1.71196 0.4
  endloop
endfacet
facet normal 0 0 1
  outer loop
    vertex 3 2.5 0.4
    vertex 2.75 2.13197 0.4
    vertex 3.18239 1.91428 0.4
  endloop
endfacet
facet normal 0 0 1
  outer loop
    vertex 1.5 0 0.4
    vertex 1.20287 0.424574 0.4
    vertex 1 0 0.4
  endloop
endfacet
facet normal 0 0 1
  outer loop
    vertex 3.5 0 0.4
    vertex 3.29705 0.424032 0.4
    vertex 3 0 0.4
  endloop
endfacet
facet normal -0 0 1
  outer loop
    vertex 2.60326 1.71196 0.4
    vertex 3.00172 1.52894 0.4
    vertex 3.18239 1.91428 0.4
  endloop
endfacet
facet normal 0 0 1
  outer loop
    vertex 1.4465 1.54514 0.4
    vertex 1.00919 1.42832 0.4
    vertex 1.36984 1.15726 0.4
  endloop
endfacet
facet normal 0 0 1
  outer loop
    vertex 2.60326 1.71196 0.4
    vertex 2.20646 1.46522 0.4
    vertex 2.65699 1.20387 0.4
  endloop
endfacet
facet normal 0 0 1
  outer loop
    vertex 2.65699 1.20387 0.4
    vertex 2.20646 1.46522 0.4
    vertex 2.24453 1.05227 0.4
  endloop
endfacet
facet normal -0 0 1
  outer loop
    vertex 3.5 2.5 0.4
    vertex 3.53795 2.10045 0.4
    vertex 4 2.5 0.4
  endloop
endfacet
facet normal -0 0 1
  outer loop
    vertex 1.20287 0.424574 0.4
    vertex 1.75163 0.377803 0.4
    vertex 1.55781 0.762433 0.4
  endloop
endfacet
facet normal 0 0 1
  outer loop
    vertex 2.94163 0.758639 0.4
    vertex 2.74826 0.37708 0.4
    vertex 3.29705 0.424032 0.4
  endloop
endfacet
facet normal -0 0 1
  outer loop
    vertex 1.83517 1.7489 0.4
    vertex 2.20646 1.46522 0.4
    vertex 2.23482 2.05483 0.4
  endloop
endfacet
facet normal 0 0 1
  outer loop
    vertex 2.23482 2.05483 0.4
    vertex 2.20646 1.46522 0.4
    vertex 2.60326 1.71196 0.4
  endloop
endfacet
facet normal 0 0 1
  outer loop
    vertex 1.27636 1.95875 0.4
    vertex 1.75 2.16122 0.4
    vertex 1.5 2.5 0.4
  endloop
endfacet
facet normal 0 0 1
  outer loop
    vertex 1.83517 1.7489 0.4
    vertex 1.75 2.16122 0.4
    vertex 1.27636 1.95875 0.4
  endloop
endfacet
facet normal -0 0 1
  outer loop
    vertex -4.66824e-016 2.5 0.4
    vertex 0.417708 2.08229 0.4
    vertex 0.5 2.5 0.4
  endloop
endfacet
facet normal 0 -0 1
  outer loop
    vertex -3.73459e-016 2 0.4
    vertex 0.417708 2.08229 0.4
    vertex -4.66824e-016 2.5 0.4
  endloop
endfacet
facet normal 0 0 1
  outer loop
    vertex 4.5 0.5 0.4
    vertex 4.08229 0.417708 0.4
    vertex 4.5 0 0.4
  endloop
endfacet
facet normal 0 0 1
  outer loop
    vertex 4.5 0 0.4
    vertex 4.08229 0.417708 0.4
    vertex 4 0 0.4
  endloop
endfacet
facet normal 0 -0 1
  outer loop
    vertex 0 0 0.4
    vertex 0.417708 0.417708 0.4
    vertex -9.33649e-017 0.5 0.4
  endloop
endfacet
facet normal 0 0 1
  outer loop
    vertex 0.5 0 0.4
    vertex 0.417708 0.417708 0.4
    vertex 0 0 0.4
  endloop
endfacet
facet normal 0 0 1
  outer loop
    vertex 4.5 2.5 0.4
    vertex 4.08229 2.08229 0.4
    vertex 4.5 2 0.4
  endloop
endfacet
facet normal -0 0 1
  outer loop
    vertex 4 2.5 0.4
    vertex 4.08229 2.08229 0.4
    vertex 4.5 2.5 0.4
  endloop
endfacet
facet normal 0 0 1
  outer loop
    vertex 2.5 0 0.4
    vertex 2.25 0.345435 0.4
    vertex 2 0 0.4
  endloop
endfacet
facet normal 0 -0 1
  outer loop
    vertex 3.29705 0.424032 0.4
    vertex 3.45771 0.942614 0.4
    vertex 2.94163 0.758639 0.4
  endloop
endfacet
facet normal 0 0 1
  outer loop
    vertex 1.55781 0.762433 0.4
    vertex 1.04054 0.945163 0.4
    vertex 1.20287 0.424574 0.4
  endloop
endfacet
facet normal 0 0 1
  outer loop
    vertex 1.27636 1.95875 0.4
    vertex 0.782564 2.16446 0.4
    vertex 0.71875 1.78125 0.4
  endloop
endfacet
facet normal 0 0 1
  outer loop
    vertex 0.417708 2.08229 0.4
    vertex 0.782564 2.16446 0.4
    vertex 0.5 2.5 0.4
  endloop
endfacet
facet normal 0 0 1
  outer loop
    vertex 1.27636 1.95875 0.4
    vertex 1.4465 1.54514 0.4
    vertex 1.83517 1.7489 0.4
  endloop
endfacet
facet normal -0 0 1
  outer loop
    vertex 1.55781 0.762433 0.4
    vertex 1.99911 0.734375 0.4
    vertex 1.78832 1.22266 0.4
  endloop
endfacet
facet normal -0 0 1
  outer loop
    vertex 2 2.5 0.4
    vertex 2.23482 2.05483 0.4
    vertex 2.5 2.5 0.4
  endloop
endfacet
facet normal -0 0 1
  outer loop
    vertex 0.5 2.5 0.4
    vertex 0.782564 2.16446 0.4
    vertex 1 2.5 0.4
  endloop
endfacet
facet normal -0 0 1
  outer loop
    vertex -1.8673e-016 1 0.4
    vertex 0.33623 0.800228 0.4
    vertex 0.510549 1.22063 0.4
  endloop
endfacet
facet normal 0 0 1
  outer loop
    vertex 3.77897 0.693716 0.4
    vertex 4.16377 0.800228 0.4
    vertex 3.98945 1.22063 0.4
  endloop
endfacet
facet normal 0 0 1
  outer loop
    vertex 0.71875 1.78125 0.4
    vertex 0.329401 1.71683 0.4
    vertex 0.510549 1.22063 0.4
  endloop
endfacet
facet normal 0 0 1
  outer loop
    vertex 0.510549 1.22063 0.4
    vertex 0.33623 0.800228 0.4
    vertex 0.721025 0.693716 0.4
  endloop
endfacet
facet normal 0 0 1
  outer loop
    vertex 4.5 1.5 0.4
    vertex 4.1706 1.71683 0.4
    vertex 3.98945 1.22063 0.4
  endloop
endfacet
facet normal 0 0 1
  outer loop
    vertex 0.510549 1.22063 0.4
    vertex 0.329401 1.71683 0.4
    vertex -2.80095e-016 1.5 0.4
  endloop
endfacet
facet normal 0 -0 1
  outer loop
    vertex 3.98945 1.22063 0.4
    vertex 4.1706 1.71683 0.4
    vertex 3.78125 1.78125 0.4
  endloop
endfacet
facet normal 0 0 1
  outer loop
    vertex 3.98945 1.22063 0.4
    vertex 4.16377 0.800228 0.4
    vertex 4.5 1 0.4
  endloop
endfacet
facet normal 0 0 1
  outer loop
    vertex 2.23482 2.05483 0.4
    vertex 2.75 2.13197 0.4
    vertex 2.5 2.5 0.4
  endloop
endfacet
facet normal 0 0 1
  outer loop
    vertex 3.45771 0.942614 0.4
    vertex 3.42213 1.42234 0.4
    vertex 3.12028 1.1463 0.4
  endloop
endfacet
facet normal 0 0 1
  outer loop
    vertex 1.36984 1.15726 0.4
    vertex 1.00919 1.42832 0.4
    vertex 1.04054 0.945163 0.4
  endloop
endfacet
facet normal 0 0 1
  outer loop
    vertex 1.78832 1.22266 0.4
    vertex 2.20646 1.46522 0.4
    vertex 1.83517 1.7489 0.4
  endloop
endfacet
facet normal 0 0 1
  outer loop
    vertex 2.24453 1.05227 0.4
    vertex 2.20646 1.46522 0.4
    vertex 1.78832 1.22266 0.4
  endloop
endfacet
facet normal 0 0 1
  outer loop
    vertex 0.510549 1.22063 0.4
    vertex 1.00919 1.42832 0.4
    vertex 0.71875 1.78125 0.4
  endloop
endfacet
facet normal 0 0 1
  outer loop
    vertex 3.78125 1.78125 0.4
    vertex 3.42213 1.42234 0.4
    vertex 3.98945 1.22063 0.4
  endloop
endfacet
facet normal 0 -0 1
  outer loop
    vertex 2.5 0 0.4
    vertex 2.74826 0.37708 0.4
    vertex 2.25 0.345435 0.4
  endloop
endfacet
facet normal 0 0 1
  outer loop
    vertex 2.25 0.345435 0.4
    vertex 1.75163 0.377803 0.4
    vertex 2 0 0.4
  endloop
endfacet
facet normal 0 0 1
  outer loop
    vertex 2.65699 1.20387 0.4
    vertex 2.50089 0.734375 0.4
    vertex 2.94163 0.758639 0.4
  endloop
endfacet
facet normal 0 -0 1
  outer loop
    vertex 2.60326 1.71196 0.4
    vertex 2.75 2.13197 0.4
    vertex 2.23482 2.05483 0.4
  endloop
endfacet
facet normal 0 0 1
  outer loop
    vertex 1.78832 1.22266 0.4
    vertex 1.99911 0.734375 0.4
    vertex 2.24453 1.05227 0.4
  endloop
endfacet
facet normal -0 0 1
  outer loop
    vertex 2.24453 1.05227 0.4
    vertex 2.50089 0.734375 0.4
    vertex 2.65699 1.20387 0.4
  endloop
endfacet
facet normal 0 0 1
  outer loop
    vertex 1.83517 1.7489 0.4
    vertex 1.4465 1.54514 0.4
    vertex 1.78832 1.22266 0.4
  endloop
endfacet
facet normal 0 0 1
  outer loop
    vertex 1.78832 1.22266 0.4
    vertex 1.4465 1.54514 0.4
    vertex 1.36984 1.15726 0.4
  endloop
endfacet
facet normal 0 0 1
  outer loop
    vertex 2 2.5 0.4
    vertex 1.75 2.16122 0.4
    vertex 2.23482 2.05483 0.4
  endloop
endfacet
facet normal 0 0 1
  outer loop
    vertex 2.23482 2.05483 0.4
    vertex 1.75 2.16122 0.4
    vertex 1.83517 1.7489 0.4
  endloop
endfacet
facet normal 0 0 1
  outer loop
    vertex 2.74826 0.37708 0.4
    vertex 2.50089 0.734375 0.4
    vertex 2.25 0.345435 0.4
  endloop
endfacet
facet normal 0 0 1
  outer loop
    vertex 2.25 0.345435 0.4
    vertex 1.99911 0.734375 0.4
    vertex 1.75163 0.377803 0.4
  endloop
endfacet
facet normal 0 0 1
  outer loop
    vertex 4.08229 2.08229 0.4
    vertex 3.53795 2.10045 0.4
    vertex 3.78125 1.78125 0.4
  endloop
endfacet
facet normal -0 0 1
  outer loop
    vertex 2.5 2.5 0.4
    vertex 2.75 2.13197 0.4
    vertex 3 2.5 0.4
  endloop
endfacet
facet normal 0 0 1
  outer loop
    vertex 3.12028 1.1463 0.4
    vertex 3.00172 1.52894 0.4
    vertex 2.65699 1.20387 0.4
  endloop
endfacet
facet normal 0 -0 1
  outer loop
    vertex 2.65699 1.20387 0.4
    vertex 3.00172 1.52894 0.4
    vertex 2.60326 1.71196 0.4
  endloop
endfacet
facet normal 0 0 1
  outer loop
    vertex 4 0 0.4
    vertex 3.73166 0.307091 0.4
    vertex 3.5 0 0.4
  endloop
endfacet
facet normal 0 0 1
  outer loop
    vertex 4.5 2 0.4
    vertex 4.1706 1.71683 0.4
    vertex 4.5 1.5 0.4
  endloop
endfacet
facet normal 0 -0 1
  outer loop
    vertex -2.80095e-016 1.5 0.4
    vertex 0.329401 1.71683 0.4
    vertex -3.73459e-016 2 0.4
  endloop
endfacet
facet normal 0 0 1
  outer loop
    vertex 4.5 1 0.4
    vertex 4.16377 0.800228 0.4
    vertex 4.5 0.5 0.4
  endloop
endfacet
facet normal 0 0 1
  outer loop
    vertex 1 0 0.4
    vertex 0.768321 0.3072 0.4
    vertex 0.5 0 0.4
  endloop
endfacet
facet normal 0 -0 1
  outer loop
    vertex -9.33649e-017 0.5 0.4
    vertex 0.33623 0.800228 0.4
    vertex -1.8673e-016 1 0.4
  endloop
endfacet
facet normal -0 0 1
  outer loop
    vertex 1.5 2.5 0.4
    vertex 1.75 2.16122 0.4
    vertex 2 2.5 0.4
  endloop
endfacet
facet normal 0 -0 1
  outer loop
    vertex 0.71875 1.78125 0.4
    vertex 0.782564 2.16446 0.4
    vertex 0.417708 2.08229 0.4
  endloop
endfacet
facet normal 0 0 1
  outer loop
    vertex 3.77897 0.693716 0.4
    vertex 3.45771 0.942614 0.4
    vertex 3.29705 0.424032 0.4
  endloop
endfacet
facet normal 0 0 1
  outer loop
    vertex 1.20287 0.424574 0.4
    vertex 1.04054 0.945163 0.4
    vertex 0.721025 0.693716 0.4
  endloop
endfacet
facet normal -0 0 1
  outer loop
    vertex 3.29705 0.424032 0.4
    vertex 3.73166 0.307091 0.4
    vertex 3.77897 0.693716 0.4
  endloop
endfacet
facet normal 0 0 1
  outer loop
    vertex 1.20287 0.424574 0.4
    vertex 0.768321 0.3072 0.4
    vertex 1 0 0.4
  endloop
endfacet
facet normal 0 -0 1
  outer loop
    vertex 3.5 0 0.4
    vertex 3.73166 0.307091 0.4
    vertex 3.29705 0.424032 0.4
  endloop
endfacet
facet normal 0 0 1
  outer loop
    vertex 0.721025 0.693716 0.4
    vertex 0.768321 0.3072 0.4
    vertex 1.20287 0.424574 0.4
  endloop
endfacet
facet normal 0 0 1
  outer loop
    vertex 2 0 0.4
    vertex 1.75163 0.377803 0.4
    vertex 1.5 0 0.4
  endloop
endfacet
facet normal 0 0 1
  outer loop
    vertex 3 0 0.4
    vertex 2.74826 0.37708 0.4
    vertex 2.5 0 0.4
  endloop
endfacet
facet normal 0 0 1
  outer loop
    vertex 2.94163 0.758639 0.4
    vertex 2.50089 0.734375 0.4
    vertex 2.74826 0.37708 0.4
  endloop
endfacet
facet normal 0 -0 1
  outer loop
    vertex 1.75163 0.377803 0.4
    vertex 1.99911 0.734375 0.4
    vertex 1.55781 0.762433 0.4
  endloop
endfacet
facet normal 0 0 1
  outer loop
    vertex 1.99911 0.734375 0.4
    vertex 2.50089 0.734375 0.4
    vertex 2.24453 1.05227 0.4
  endloop
endfacet
facet normal 0 -0 1
  outer loop
    vertex 2.25 0.345435 0.4
    vertex 2.50089 0.734375 0.4
    vertex 1.99911 0.734375 0.4
  endloop
endfacet
facet normal 0 0 1
  outer loop
    vertex 4.08229 0.417708 0.4
    vertex 3.73166 0.307091 0.4
    vertex 4 0 0.4
  endloop
endfacet
facet normal 0 0 1
  outer loop
    vertex 4.5 0.5 0.4
    vertex 4.16377 0.800228 0.4
    vertex 4.08229 0.417708 0.4
  endloop
endfacet
facet normal -0 0 1
  outer loop
    vertex -3.73459e-016 2 0.4
    vertex 0.329401 1.71683 0.4
    vertex 0.417708 2.08229 0.4
  endloop
endfacet
facet normal 0 0 1
  outer loop
    vertex 4.08229 2.08229 0.4
    vertex 4.1706 1.71683 0.4
    vertex 4.5 2 0.4
  endloop
endfacet
facet normal 0 -0 1
  outer loop
    vertex 0.5 0 0.4
    vertex 0.768321 0.3072 0.4
    vertex 0.417708 0.417708 0.4
  endloop
endfacet
facet normal 0 0 1
  outer loop
    vertex 0.417708 0.417708 0.4
    vertex 0.33623 0.800228 0.4
    vertex -9.33649e-017 0.5 0.4
  endloop
endfacet
facet normal 0 -0 1
  outer loop
    vertex 4.08229 0.417708 0.4
    vertex 4.16377 0.800228 0.4
    vertex 3.77897 0.693716 0.4
  endloop
endfacet
facet normal 0 0 1
  outer loop
    vertex 0.417708 2.08229 0.4
    vertex 0.329401 1.71683 0.4
    vertex 0.71875 1.78125 0.4
  endloop
endfacet
facet normal -0 0 1
  outer loop
    vertex 3.78125 1.78125 0.4
    vertex 4.1706 1.71683 0.4
    vertex 4.08229 2.08229 0.4
  endloop
endfacet
facet normal 0 0 1
  outer loop
    vertex 3.77897 0.693716 0.4
    vertex 3.73166 0.307091 0.4
    vertex 4.08229 0.417708 0.4
  endloop
endfacet
facet normal 0 0 1
  outer loop
    vertex 0.721025 0.693716 0.4
    vertex 0.33623 0.800228 0.4
    vertex 0.417708 0.417708 0.4
  endloop
endfacet
facet normal -0 0 1
  outer loop
    vertex 0.417708 0.417708 0.4
    vertex 0.768321 0.3072 0.4
    vertex 0.721025 0.693716 0.4
  endloop
endfacet
facet normal 0 -0 -1
  outer loop
    vertex 2.94219 1.73757 0
    vertex 3.13016 1.34274 0
    vertex 2.71168 1.27734 0
  endloop
endfacet
facet normal 0 0 -1
  outer loop
    vertex 1.37972 1.3537 0
    vertex 1.55837 1.74136 0
    vertex 1.84301 1.29613 0
  endloop
endfacet
facet normal -0 0 -1
  outer loop
    vertex 1.49828 0.971058 0
    vertex 1.31761 0.585715 0
    vertex 1.07787 1.07766 0
  endloop
endfacet
facet normal 0 0 -1
  outer loop
    vertex 1.55837 1.74136 0
    vertex 1.37972 1.3537 0
    vertex 1.04229 1.55739 0
  endloop
endfacet
facet normal 0 0 -1
  outer loop
    vertex 3.13016 1.34274 0
    vertex 2.94219 1.73757 0
    vertex 3.45946 1.55484 0
  endloop
endfacet
facet normal 0 0 -1
  outer loop
    vertex 3.45946 1.55484 0
    vertex 3.98945 1.27937 0
    vertex 3.49081 1.07168 0
  endloop
endfacet
facet normal 0 0 -1
  outer loop
    vertex 0.510549 1.27937 0
    vertex 1.04229 1.55739 0
    vertex 1.07787 1.07766 0
  endloop
endfacet
facet normal 0 -0 -1
  outer loop
    vertex 3.77897 1.80628 0
    vertex 3.98945 1.27937 0
    vertex 3.45946 1.55484 0
  endloop
endfacet
facet normal 0 0 -1
  outer loop
    vertex 0.510549 1.27937 0
    vertex 0.721025 1.80628 0
    vertex 1.04229 1.55739 0
  endloop
endfacet
facet normal 0 -0 -1
  outer loop
    vertex 1.37972 1.3537 0
    vertex 1.49828 0.971058 0
    vertex 1.07787 1.07766 0
  endloop
endfacet
facet normal 0 0 -1
  outer loop
    vertex 3.22364 0.541248 0
    vertex 3.0535 0.954857 0
    vertex 3.49081 1.07168 0
  endloop
endfacet
facet normal 0 -0 -1
  outer loop
    vertex 1.31761 0.585715 0
    vertex 1.5 0 0
    vertex 0.962047 0.399551 0
  endloop
endfacet
facet normal 0 0 -1
  outer loop
    vertex 1.31761 0.585715 0
    vertex 0.71875 0.71875 0
    vertex 1.07787 1.07766 0
  endloop
endfacet
facet normal -0 0 -1
  outer loop
    vertex 3.78125 0.71875 0
    vertex 3.22364 0.541248 0
    vertex 3.49081 1.07168 0
  endloop
endfacet
facet normal 0 0 -1
  outer loop
    vertex 1.5 0 0
    vertex 1 0 0
    vertex 0.962047 0.399551 0
  endloop
endfacet
facet normal 0 0 -1
  outer loop
    vertex 3.5 0 0
    vertex 3 0 0
    vertex 3.22364 0.541248 0
  endloop
endfacet
facet normal 0 0 -1
  outer loop
    vertex -1.8673e-016 1 0
    vertex -2.80095e-016 1.5 0
    vertex 0.510549 1.27937 0
  endloop
endfacet
facet normal 0 -0 -1
  outer loop
    vertex 4.5 1.5 0
    vertex 4.5 1 0
    vertex 3.98945 1.27937 0
  endloop
endfacet
facet normal 0 0 -1
  outer loop
    vertex 3.5 0 0
    vertex 3.22364 0.541248 0
    vertex 3.71744 0.335541 0
  endloop
endfacet
facet normal 0 -0 -1
  outer loop
    vertex 3 2.5 0
    vertex 3.29713 2.07543 0
    vertex 2.74837 2.1222 0
  endloop
endfacet
facet normal 0 0 -1
  outer loop
    vertex 1.20295 2.07597 0
    vertex 1.5 2.5 0
    vertex 1.75174 2.12292 0
  endloop
endfacet
facet normal 0 0 -1
  outer loop
    vertex 0.5 0 0
    vertex 0.417708 0.417708 0
    vertex 0.962047 0.399551 0
  endloop
endfacet
facet normal 0 0 -1
  outer loop
    vertex 0.71875 0.71875 0
    vertex 1.31761 0.585715 0
    vertex 0.962047 0.399551 0
  endloop
endfacet
facet normal 0 0 -1
  outer loop
    vertex 1.31761 0.585715 0
    vertex 1.89674 0.788043 0
    vertex 1.75 0.368028 0
  endloop
endfacet
facet normal 0 0 -1
  outer loop
    vertex 1.5 0 0
    vertex 1.31761 0.585715 0
    vertex 1.75 0.368028 0
  endloop
endfacet
facet normal 0 0 -1
  outer loop
    vertex 3 2.5 0
    vertex 3.5 2.5 0
    vertex 3.29713 2.07543 0
  endloop
endfacet
facet normal 0 0 -1
  outer loop
    vertex 1 2.5 0
    vertex 1.5 2.5 0
    vertex 1.20295 2.07597 0
  endloop
endfacet
facet normal -0 0 -1
  outer loop
    vertex 1.89674 0.788043 0
    vertex 1.31761 0.585715 0
    vertex 1.49828 0.971058 0
  endloop
endfacet
facet normal 0 0 -1
  outer loop
    vertex 3.0535 0.954857 0
    vertex 3.13016 1.34274 0
    vertex 3.49081 1.07168 0
  endloop
endfacet
facet normal 0 0 -1
  outer loop
    vertex 1.89674 0.788043 0
    vertex 1.84301 1.29613 0
    vertex 2.29354 1.03478 0
  endloop
endfacet
facet normal 0 0 -1
  outer loop
    vertex 1.84301 1.29613 0
    vertex 2.25547 1.44773 0
    vertex 2.29354 1.03478 0
  endloop
endfacet
facet normal 0 0 -1
  outer loop
    vertex 1 0 0
    vertex 0.5 0 0
    vertex 0.962047 0.399551 0
  endloop
endfacet
facet normal -0 0 -1
  outer loop
    vertex 3.29713 2.07543 0
    vertex 2.94219 1.73757 0
    vertex 2.74837 2.1222 0
  endloop
endfacet
facet normal 0 0 -1
  outer loop
    vertex 1.55837 1.74136 0
    vertex 1.20295 2.07597 0
    vertex 1.75174 2.12292 0
  endloop
endfacet
facet normal 0 0 -1
  outer loop
    vertex 2.26518 0.445167 0
    vertex 1.89674 0.788043 0
    vertex 2.29354 1.03478 0
  endloop
endfacet
facet normal -0 0 -1
  outer loop
    vertex 2.66483 0.751103 0
    vertex 2.26518 0.445167 0
    vertex 2.29354 1.03478 0
  endloop
endfacet
facet normal 0 0 -1
  outer loop
    vertex 3.22364 0.541248 0
    vertex 3 0 0
    vertex 2.75 0.338775 0
  endloop
endfacet
facet normal 0 0 -1
  outer loop
    vertex 2.66483 0.751103 0
    vertex 3.22364 0.541248 0
    vertex 2.75 0.338775 0
  endloop
endfacet
facet normal 0 0 -1
  outer loop
    vertex -4.66824e-016 2.5 0
    vertex 0.5 2.5 0
    vertex 0.417708 2.08229 0
  endloop
endfacet
facet normal 0 0 -1
  outer loop
    vertex -3.73459e-016 2 0
    vertex -4.66824e-016 2.5 0
    vertex 0.417708 2.08229 0
  endloop
endfacet
facet normal 0 -0 -1
  outer loop
    vertex 4.5 0.5 0
    vertex 4.5 0 0
    vertex 4.08229 0.417708 0
  endloop
endfacet
facet normal 0 0 -1
  outer loop
    vertex 4.5 0 0
    vertex 4 0 0
    vertex 4.08229 0.417708 0
  endloop
endfacet
facet normal 0 0 -1
  outer loop
    vertex 0 0 0
    vertex -9.33649e-017 0.5 0
    vertex 0.417708 0.417708 0
  endloop
endfacet
facet normal 0 0 -1
  outer loop
    vertex 0.5 0 0
    vertex 0 0 0
    vertex 0.417708 0.417708 0
  endloop
endfacet
facet normal 0 0 -1
  outer loop
    vertex 2 2.5 0
    vertex 2.5 2.5 0
    vertex 2.25 2.15457 0
  endloop
endfacet
facet normal 0 -0 -1
  outer loop
    vertex 4.5 2.5 0
    vertex 4.5 2 0
    vertex 4.08229 2.08229 0
  endloop
endfacet
facet normal 0 0 -1
  outer loop
    vertex 4 2.5 0
    vertex 4.5 2.5 0
    vertex 4.08229 2.08229 0
  endloop
endfacet
facet normal 0 -0 -1
  outer loop
    vertex 1.20295 2.07597 0
    vertex 1.55837 1.74136 0
    vertex 1.04229 1.55739 0
  endloop
endfacet
facet normal 0 0 -1
  outer loop
    vertex 2.94219 1.73757 0
    vertex 3.29713 2.07543 0
    vertex 3.45946 1.55484 0
  endloop
endfacet
facet normal 0 0 -1
  outer loop
    vertex 3.22364 0.541248 0
    vertex 3.78125 0.71875 0
    vertex 3.71744 0.335541 0
  endloop
endfacet
facet normal 0 0 -1
  outer loop
    vertex 4.08229 0.417708 0
    vertex 4 0 0
    vertex 3.71744 0.335541 0
  endloop
endfacet
facet normal 0 0 -1
  outer loop
    vertex 3.22364 0.541248 0
    vertex 2.66483 0.751103 0
    vertex 3.0535 0.954857 0
  endloop
endfacet
facet normal -0 0 -1
  outer loop
    vertex 2.94219 1.73757 0
    vertex 2.71168 1.27734 0
    vertex 2.50089 1.76562 0
  endloop
endfacet
facet normal 0 0 -1
  outer loop
    vertex 2.5 0 0
    vertex 2 0 0
    vertex 2.26518 0.445167 0
  endloop
endfacet
facet normal 0 0 -1
  outer loop
    vertex 4 0 0
    vertex 3.5 0 0
    vertex 3.71744 0.335541 0
  endloop
endfacet
facet normal 0 0 -1
  outer loop
    vertex -1.8673e-016 1 0
    vertex 0.510549 1.27937 0
    vertex 0.329401 0.783166 0
  endloop
endfacet
facet normal 0 0 -1
  outer loop
    vertex 0.721025 1.80628 0
    vertex 0.510549 1.27937 0
    vertex 0.33623 1.69977 0
  endloop
endfacet
facet normal 0 -0 -1
  outer loop
    vertex 0.510549 1.27937 0
    vertex 0.71875 0.71875 0
    vertex 0.329401 0.783166 0
  endloop
endfacet
facet normal 0 0 -1
  outer loop
    vertex 3.78125 0.71875 0
    vertex 3.98945 1.27937 0
    vertex 4.1706 0.783166 0
  endloop
endfacet
facet normal -0 0 -1
  outer loop
    vertex 4.5 1.5 0
    vertex 3.98945 1.27937 0
    vertex 4.16377 1.69977 0
  endloop
endfacet
facet normal 0 0 -1
  outer loop
    vertex 0.510549 1.27937 0
    vertex -2.80095e-016 1.5 0
    vertex 0.33623 1.69977 0
  endloop
endfacet
facet normal 0 0 -1
  outer loop
    vertex 3.98945 1.27937 0
    vertex 3.77897 1.80628 0
    vertex 4.16377 1.69977 0
  endloop
endfacet
facet normal 0 0 -1
  outer loop
    vertex 3.98945 1.27937 0
    vertex 4.5 1 0
    vertex 4.1706 0.783166 0
  endloop
endfacet
facet normal 0 0 -1
  outer loop
    vertex 2.26518 0.445167 0
    vertex 2 0 0
    vertex 1.75 0.368028 0
  endloop
endfacet
facet normal 0 0 -1
  outer loop
    vertex 3.13016 1.34274 0
    vertex 3.45946 1.55484 0
    vertex 3.49081 1.07168 0
  endloop
endfacet
facet normal 0 0 -1
  outer loop
    vertex 1.04229 1.55739 0
    vertex 1.37972 1.3537 0
    vertex 1.07787 1.07766 0
  endloop
endfacet
facet normal 0 0 -1
  outer loop
    vertex 2.71168 1.27734 0
    vertex 2.66483 0.751103 0
    vertex 2.29354 1.03478 0
  endloop
endfacet
facet normal 0 0 -1
  outer loop
    vertex 2.25547 1.44773 0
    vertex 2.71168 1.27734 0
    vertex 2.29354 1.03478 0
  endloop
endfacet
facet normal 0 0 -1
  outer loop
    vertex 0.71875 0.71875 0
    vertex 0.510549 1.27937 0
    vertex 1.07787 1.07766 0
  endloop
endfacet
facet normal 0 0 -1
  outer loop
    vertex 3.98945 1.27937 0
    vertex 3.78125 0.71875 0
    vertex 3.49081 1.07168 0
  endloop
endfacet
facet normal 0 -0 -1
  outer loop
    vertex 2 2.5 0
    vertex 2.25 2.15457 0
    vertex 1.75174 2.12292 0
  endloop
endfacet
facet normal 0 0 -1
  outer loop
    vertex 2.25 2.15457 0
    vertex 2.5 2.5 0
    vertex 2.74837 2.1222 0
  endloop
endfacet
facet normal 0 0 -1
  outer loop
    vertex 1.84301 1.29613 0
    vertex 1.55837 1.74136 0
    vertex 1.99911 1.76562 0
  endloop
endfacet
facet normal 0 -0 -1
  outer loop
    vertex 1.89674 0.788043 0
    vertex 2.26518 0.445167 0
    vertex 1.75 0.368028 0
  endloop
endfacet
facet normal 0 0 -1
  outer loop
    vertex 2.71168 1.27734 0
    vertex 2.25547 1.44773 0
    vertex 2.50089 1.76562 0
  endloop
endfacet
facet normal -0 0 -1
  outer loop
    vertex 2.25547 1.44773 0
    vertex 1.84301 1.29613 0
    vertex 1.99911 1.76562 0
  endloop
endfacet
facet normal 0 0 -1
  outer loop
    vertex 2.71168 1.27734 0
    vertex 3.13016 1.34274 0
    vertex 3.0535 0.954857 0
  endloop
endfacet
facet normal 0 0 -1
  outer loop
    vertex 2.66483 0.751103 0
    vertex 2.71168 1.27734 0
    vertex 3.0535 0.954857 0
  endloop
endfacet
facet normal 0 0 -1
  outer loop
    vertex 2.26518 0.445167 0
    vertex 2.66483 0.751103 0
    vertex 2.75 0.338775 0
  endloop
endfacet
facet normal 0 0 -1
  outer loop
    vertex 2.5 0 0
    vertex 2.26518 0.445167 0
    vertex 2.75 0.338775 0
  endloop
endfacet
facet normal 0 0 -1
  outer loop
    vertex 1.75174 2.12292 0
    vertex 2.25 2.15457 0
    vertex 1.99911 1.76562 0
  endloop
endfacet
facet normal 0 0 -1
  outer loop
    vertex 2.25 2.15457 0
    vertex 2.74837 2.1222 0
    vertex 2.50089 1.76562 0
  endloop
endfacet
facet normal 0 0 -1
  outer loop
    vertex 0.417708 0.417708 0
    vertex 0.71875 0.71875 0
    vertex 0.962047 0.399551 0
  endloop
endfacet
facet normal 0 0 -1
  outer loop
    vertex 2 0 0
    vertex 1.5 0 0
    vertex 1.75 0.368028 0
  endloop
endfacet
facet normal 0 -0 -1
  outer loop
    vertex 1.84301 1.29613 0
    vertex 1.89674 0.788043 0
    vertex 1.49828 0.971058 0
  endloop
endfacet
facet normal 0 0 -1
  outer loop
    vertex 1.37972 1.3537 0
    vertex 1.84301 1.29613 0
    vertex 1.49828 0.971058 0
  endloop
endfacet
facet normal 0 0 -1
  outer loop
    vertex 0.5 2.5 0
    vertex 1 2.5 0
    vertex 0.768337 2.19291 0
  endloop
endfacet
facet normal 0 -0 -1
  outer loop
    vertex 4.5 2 0
    vertex 4.5 1.5 0
    vertex 4.16377 1.69977 0
  endloop
endfacet
facet normal 0 0 -1
  outer loop
    vertex -2.80095e-016 1.5 0
    vertex -3.73459e-016 2 0
    vertex 0.33623 1.69977 0
  endloop
endfacet
facet normal 0 -0 -1
  outer loop
    vertex 4.5 1 0
    vertex 4.5 0.5 0
    vertex 4.1706 0.783166 0
  endloop
endfacet
facet normal 0 0 -1
  outer loop
    vertex -9.33649e-017 0.5 0
    vertex -1.8673e-016 1 0
    vertex 0.329401 0.783166 0
  endloop
endfacet
facet normal 0 0 -1
  outer loop
    vertex 3.5 2.5 0
    vertex 4 2.5 0
    vertex 3.73168 2.1928 0
  endloop
endfacet
facet normal 0 0 -1
  outer loop
    vertex 3 0 0
    vertex 2.5 0 0
    vertex 2.75 0.338775 0
  endloop
endfacet
facet normal 0 -0 -1
  outer loop
    vertex 3.78125 0.71875 0
    vertex 4.08229 0.417708 0
    vertex 3.71744 0.335541 0
  endloop
endfacet
facet normal 0 0 -1
  outer loop
    vertex 3.29713 2.07543 0
    vertex 3.77897 1.80628 0
    vertex 3.45946 1.55484 0
  endloop
endfacet
facet normal 0 0 -1
  outer loop
    vertex 0.721025 1.80628 0
    vertex 1.20295 2.07597 0
    vertex 1.04229 1.55739 0
  endloop
endfacet
facet normal 0 -0 -1
  outer loop
    vertex 1 2.5 0
    vertex 1.20295 2.07597 0
    vertex 0.768337 2.19291 0
  endloop
endfacet
facet normal -0 0 -1
  outer loop
    vertex 1.20295 2.07597 0
    vertex 0.721025 1.80628 0
    vertex 0.768337 2.19291 0
  endloop
endfacet
facet normal 0 0 -1
  outer loop
    vertex 3.77897 1.80628 0
    vertex 3.29713 2.07543 0
    vertex 3.73168 2.1928 0
  endloop
endfacet
facet normal 0 0 -1
  outer loop
    vertex 3.29713 2.07543 0
    vertex 3.5 2.5 0
    vertex 3.73168 2.1928 0
  endloop
endfacet
facet normal 0 0 -1
  outer loop
    vertex 1.5 2.5 0
    vertex 2 2.5 0
    vertex 1.75174 2.12292 0
  endloop
endfacet
facet normal 0 0 -1
  outer loop
    vertex 2.5 2.5 0
    vertex 3 2.5 0
    vertex 2.74837 2.1222 0
  endloop
endfacet
facet normal 0 0 -1
  outer loop
    vertex 1.55837 1.74136 0
    vertex 1.75174 2.12292 0
    vertex 1.99911 1.76562 0
  endloop
endfacet
facet normal 0 -0 -1
  outer loop
    vertex 2.74837 2.1222 0
    vertex 2.94219 1.73757 0
    vertex 2.50089 1.76562 0
  endloop
endfacet
facet normal 0 -0 -1
  outer loop
    vertex 2.25 2.15457 0
    vertex 2.50089 1.76562 0
    vertex 1.99911 1.76562 0
  endloop
endfacet
facet normal -0 0 -1
  outer loop
    vertex 2.50089 1.76562 0
    vertex 2.25547 1.44773 0
    vertex 1.99911 1.76562 0
  endloop
endfacet
facet normal 0 0 -1
  outer loop
    vertex 0.417708 2.08229 0
    vertex 0.5 2.5 0
    vertex 0.768337 2.19291 0
  endloop
endfacet
facet normal 0 0 -1
  outer loop
    vertex -3.73459e-016 2 0
    vertex 0.417708 2.08229 0
    vertex 0.33623 1.69977 0
  endloop
endfacet
facet normal 0 0 -1
  outer loop
    vertex 4.08229 2.08229 0
    vertex 4.5 2 0
    vertex 4.16377 1.69977 0
  endloop
endfacet
facet normal 0 -0 -1
  outer loop
    vertex 4 2.5 0
    vertex 4.08229 2.08229 0
    vertex 3.73168 2.1928 0
  endloop
endfacet
facet normal -0 0 -1
  outer loop
    vertex 4.5 0.5 0
    vertex 4.08229 0.417708 0
    vertex 4.1706 0.783166 0
  endloop
endfacet
facet normal 0 0 -1
  outer loop
    vertex 0.417708 0.417708 0
    vertex -9.33649e-017 0.5 0
    vertex 0.329401 0.783166 0
  endloop
endfacet
facet normal 0 0 -1
  outer loop
    vertex 4.08229 0.417708 0
    vertex 3.78125 0.71875 0
    vertex 4.1706 0.783166 0
  endloop
endfacet
facet normal -0 0 -1
  outer loop
    vertex 4.08229 2.08229 0
    vertex 3.77897 1.80628 0
    vertex 3.73168 2.1928 0
  endloop
endfacet
facet normal 0 0 -1
  outer loop
    vertex 3.77897 1.80628 0
    vertex 4.08229 2.08229 0
    vertex 4.16377 1.69977 0
  endloop
endfacet
facet normal 0 -0 -1
  outer loop
    vertex 0.417708 2.08229 0
    vertex 0.721025 1.80628 0
    vertex 0.33623 1.69977 0
  endloop
endfacet
facet normal -0 0 -1
  outer loop
    vertex 0.71875 0.71875 0
    vertex 0.417708 0.417708 0
    vertex 0.329401 0.783166 0
  endloop
endfacet
facet normal 0 0 -1
  outer loop
    vertex 0.721025 1.80628 0
    vertex 0.417708 2.08229 0
    vertex 0.768337 2.19291 0
  endloop
endfacet
endsolid Created by Gmsh
